<svg xmlns="http://www.w3.org/2000/svg" width="7.435" height="7.95" viewBox="0 0 7.435 7.95"><g transform="translate(0 2.522)"><g transform="translate(0.104 0.036)"><path d="M216.369,561.55a3.616,3.616,0,0,1-4.914-4.539" transform="translate(-211.227 -557.011)" fill="#fff"/></g><path d="M214.57,561.9a3.72,3.72,0,0,1-3.484-5.018l.2.073a3.511,3.511,0,0,0,4.772,4.408l.089.189A3.686,3.686,0,0,1,214.57,561.9Z" transform="translate(-210.852 -556.88)" fill="#1a1818"/></g><g transform="translate(1.846 0.104)"><g transform="translate(0.053 0.104)"><path d="M217.668,549.067a3.614,3.614,0,0,1,4.864,5.07" transform="translate(-217.668 -548.576)" fill="#fff"/></g><path d="M222.483,553.923l-.176-.113a3.51,3.51,0,0,0-4.723-4.924l-.105-.18a3.719,3.719,0,0,1,5,5.217Z" transform="translate(-217.479 -548.201)" fill="#1a1818"/></g><g transform="translate(0.736)"><g transform="translate(0.181 0.209)"><path d="M214.787,548.577l-.643,1.113h1.285Z" transform="translate(-214.144 -548.577)" fill="#fff"/></g><path d="M215.142,549.252H213.5l.823-1.426Zm-1.285-.209h.924l-.462-.8Z" transform="translate(-213.495 -547.826)" fill="#1a1818"/></g><g transform="translate(4.724 6.467)"><g transform="translate(0.188 0.118)"><path d="M229.77,571.469l-1.282.094.722,1.063Z" transform="translate(-228.488 -571.469)" fill="#fff"/></g><path d="M228.738,572.53l-.925-1.362,1.642-.121Zm-.549-1.18.519.764.4-.831Z" transform="translate(-227.813 -571.047)" fill="#1a1818"/></g><g transform="translate(1.455 1.601)"><g transform="translate(0.104 0.105)"><ellipse cx="2.156" cy="2.156" rx="2.156" ry="2.156" fill="#fff"/></g><path d="M218.337,558.1a2.261,2.261,0,1,1,2.261-2.261A2.264,2.264,0,0,1,218.337,558.1Zm0-4.313a2.052,2.052,0,1,0,2.052,2.052A2.054,2.054,0,0,0,218.337,553.782Z" transform="translate(-216.076 -553.573)" fill="#1a1818"/></g></svg>