<svg xmlns="http://www.w3.org/2000/svg" width="7.623" height="6.721" viewBox="0 0 7.623 6.721"><g transform="translate(0 0)"><path d="M328.911,555.1v-3.215a2.411,2.411,0,0,0-2.228-2.559H325.19v6.453A4.641,4.641,0,0,1,328.911,555.1Z" transform="translate(-325.1 -549.236)" fill="#fff"/><path d="M324.814,555.672v-6.721H326.4a2.5,2.5,0,0,1,2.318,2.649v3.335l-.115-.033a4.59,4.59,0,0,0-3.643.665Zm.18-6.541v6.2a4.749,4.749,0,0,1,3.541-.63v-3.1a2.324,2.324,0,0,0-2.138-2.469Z" transform="translate(-324.814 -548.951)" fill="#1a1818"/></g><g transform="translate(3.721 0)"><path d="M340.692,555.1v-3.215a2.411,2.411,0,0,1,2.228-2.559h1.493v6.453A4.64,4.64,0,0,0,340.692,555.1Z" transform="translate(-340.602 -549.236)" fill="#fff"/><path d="M344.218,555.672l-.143-.106a4.588,4.588,0,0,0-3.643-.665l-.115.033V551.6a2.5,2.5,0,0,1,2.318-2.649h1.583Zm-2.732-1.1a5.032,5.032,0,0,1,2.552.752v-6.2h-1.4A2.324,2.324,0,0,0,340.5,551.6v3.1A4.012,4.012,0,0,1,341.486,554.575Z" transform="translate(-340.316 -548.951)" fill="#1a1818"/></g><g transform="translate(4.95 1.957)"><path d="M345.713,557.9a1.234,1.234,0,0,1,1.369-.321" transform="translate(-345.646 -557.386)" fill="#fff"/><path d="M345.568,557.676l-.133-.12a1.334,1.334,0,0,1,1.473-.342l-.076.163A1.131,1.131,0,0,0,345.568,557.676Z" transform="translate(-345.435 -557.103)" fill="#1a1818"/></g><g transform="translate(4.95 2.762)"><path d="M345.713,561.252a1.234,1.234,0,0,1,1.369-.321" transform="translate(-345.646 -560.739)" fill="#fff"/><path d="M345.568,561.03l-.133-.12a1.335,1.335,0,0,1,1.473-.342l-.076.163A1.131,1.131,0,0,0,345.568,561.03Z" transform="translate(-345.435 -560.456)" fill="#1a1818"/></g><g transform="translate(4.95 3.567)"><path d="M345.713,564.6a1.234,1.234,0,0,1,1.369-.321" transform="translate(-345.646 -564.091)" fill="#fff"/><path d="M345.568,564.382l-.133-.12a1.334,1.334,0,0,1,1.473-.342l-.076.163A1.134,1.134,0,0,0,345.568,564.382Z" transform="translate(-345.435 -563.809)" fill="#1a1818"/></g><g transform="translate(1.2 2.013)"><path d="M331.338,558.131a1.234,1.234,0,0,0-1.369-.321" transform="translate(-329.931 -557.617)" fill="#fff"/><path d="M331.151,557.909a1.132,1.132,0,0,0-1.264-.3l-.076-.163a1.335,1.335,0,0,1,1.473.342Z" transform="translate(-329.811 -557.335)" fill="#1a1818"/></g><g transform="translate(1.2 2.817)"><path d="M331.338,561.483a1.234,1.234,0,0,0-1.369-.321" transform="translate(-329.931 -560.97)" fill="#fff"/><path d="M331.151,561.261a1.133,1.133,0,0,0-1.264-.3l-.076-.163a1.335,1.335,0,0,1,1.473.343Z" transform="translate(-329.811 -560.687)" fill="#1a1818"/></g><g transform="translate(1.2 3.622)"><path d="M331.338,564.836a1.234,1.234,0,0,0-1.369-.321" transform="translate(-329.931 -564.323)" fill="#fff"/><path d="M331.151,564.614a1.133,1.133,0,0,0-1.264-.3l-.076-.163a1.334,1.334,0,0,1,1.473.343Z" transform="translate(-329.811 -564.04)" fill="#1a1818"/></g></svg>