<svg xmlns="http://www.w3.org/2000/svg" width="6.227" height="8.217" viewBox="0 0 6.227 8.217"><g transform="translate(0 4.274)"><rect width="6.035" height="3.752" transform="translate(0.096 0.096)" fill="#fff"/><path d="M251.539,564.259h-6.227v-3.943h6.227Zm-6.036-.192h5.844v-3.56H245.5Z" transform="translate(-245.312 -560.316)" fill="#1a1818"/></g><g transform="translate(1.225 2.223)"><rect width="1.547" height="2.05" transform="translate(0.096 0.096)" fill="#fff"/><path d="M251.846,554.536h-1.739v-2.242h1.739Zm-1.547-.192h1.356v-1.859H250.3Z" transform="translate(-250.107 -552.294)" fill="#1a1818"/></g><g transform="translate(1.178 0.731)"><path d="M251.308,547.237l-.756,1.388h1.511Z" transform="translate(-250.391 -547.037)" fill="#fff"/><path d="M251.755,548.138h-1.834l.917-1.685Zm-1.511-.192h1.189l-.594-1.092Z" transform="translate(-249.921 -546.453)" fill="#1a1818"/></g><g transform="translate(3.677 1.696)"><path d="M.614,0h0a.6.6,0,0,1,.6.6v1.97a0,0,0,0,1,0,0H0a0,0,0,0,1,0,0V.614A.614.614,0,0,1,.614,0Z" transform="translate(0.096 0.096)" fill="#fff"/><path d="M261.1,552.989h-1.4v-2.113a.646.646,0,0,1,.645-.645h.128a.63.63,0,0,1,.629.629Zm-1.211-.192h1.019V550.86a.438.438,0,0,0-.438-.437h-.128a.454.454,0,0,0-.453.453Z" transform="translate(-259.699 -550.231)" fill="#1a1818"/></g><g transform="translate(3.826)"><path d="M261.535,545.959a2.511,2.511,0,0,0-.418-1.769,2.117,2.117,0,0,0-.406,1.769Z" transform="translate(-260.565 -544.038)" fill="#fff"/><path d="M261.333,545.611h-.979l-.019-.072a2.194,2.194,0,0,1,.426-1.855l.077-.09.072.094a2.582,2.582,0,0,1,.436,1.843Zm-.826-.192h.66a2.446,2.446,0,0,0-.337-1.513A2.041,2.041,0,0,0,260.507,545.419Z" transform="translate(-260.282 -543.594)" fill="#1a1818"/></g></svg>