<svg xmlns="http://www.w3.org/2000/svg" width="8.031" height="6.43" viewBox="0 0 8.031 6.43"><g transform="translate(0.363 0)"><rect width="7.121" height="5.522" rx="1.592" transform="translate(0.092 0.092)" fill="#fff"/><path d="M289.2,554.313h-6.339a.484.484,0,0,1-.483-.483v-4.74a.484.484,0,0,1,.483-.483H289.2a.484.484,0,0,1,.483.483v4.74A.484.484,0,0,1,289.2,554.313Zm-6.339-5.522a.3.3,0,0,0-.3.3v4.74a.3.3,0,0,0,.3.3H289.2a.3.3,0,0,0,.3-.3v-4.74a.3.3,0,0,0-.3-.3Z" transform="translate(-282.382 -548.607)" fill="#1a1818"/></g><g transform="translate(0 5.464)"><rect width="7.847" height="0.782" rx="0.391" transform="translate(0.092 0.092)" fill="#fff"/><path d="M288.453,571.809h-7.065a.483.483,0,1,1,0-.966h7.065a.483.483,0,1,1,0,.966Zm-7.065-.782a.3.3,0,1,0,0,.6h7.065a.3.3,0,1,0,0-.6Z" transform="translate(-280.905 -570.842)" fill="#1a1818"/></g><g transform="translate(0.834 0.572)"><rect width="6.18" height="4.379" rx="1.592" transform="translate(0.092 0.092)" fill="#fff"/><path d="M290.178,555.5h-5.4a.484.484,0,0,1-.483-.483v-3.6a.484.484,0,0,1,.483-.483h5.4a.484.484,0,0,1,.483.483v3.6A.484.484,0,0,1,290.178,555.5Zm-5.4-4.379a.3.3,0,0,0-.3.3v3.6a.3.3,0,0,0,.3.3h5.4a.3.3,0,0,0,.3-.3v-3.6a.3.3,0,0,0-.3-.3Z" transform="translate(-284.297 -550.933)" fill="#1a1818"/></g></svg>