<svg xmlns="http://www.w3.org/2000/svg" width="98.078" height="38.036" viewBox="0 0 98.078 38.036"><g transform="translate(0.377 0.125)"><ellipse cx="1.037" cy="1.244" rx="1.037" ry="1.244" transform="translate(20.238 8.266)" fill="#fff" stroke="#000" stroke-miterlimit="10" stroke-width="0.25"/><ellipse cx="1.183" cy="0.985" rx="1.183" ry="0.985" transform="matrix(0.385, -0.923, 0.923, 0.385, 61.347, 10.38)" fill="#fff" stroke="#000" stroke-miterlimit="10" stroke-width="0.25"/><path d="M409.326,555.251s1.322-1.477,2.436-1.321c.987.138,1.629.978,1.455,1.474a.321.321,0,0,1-.275.227c-.281.022-.565-.155-1.05-.522A2.886,2.886,0,0,0,409.326,555.251Z" transform="translate(-315.676 -532.732)" fill="#fff" stroke="#000" stroke-miterlimit="10" stroke-width="0.25"/><path d="M242.316,517.653c-2.021-.225-4.406,1.52-5.183,1.52a14.278,14.278,0,0,0,2.125-9.381c-.363-2.073-5.338-2.073-7.93,1.607s.311,8.189.311,8.189-.363.362-2.073,0-3.265-5.6-4.613-6.219-2.176.415-3.006,1.4c.415-1.917-.57-3.369-.829-2.695-.518,2.228-2.073,6.063-4.347,6.012s-2.028-2.954-1.509-3.939,1.814-4.276,1.3-4.664c-.705-.529-2.442,2.6-3.68,5.494-1.29,3.013-2.747,3.161-3.263,3.006-3.522-.933-3.371-5.442-3.008-6.427,4.405-11.972,2.954-15.185,1.952-15.185-4.7.173-3.766,15.444-3.9,16.247-.8,2.98-3.706,5.234-4.82,5.234s-3.006-2.539-3.887-3.265a3.561,3.561,0,0,0-2.384-.959,6.553,6.553,0,0,0,1.84-3.732c.13-1.3-.518-2.436-1.581-2.047s-1.322,1.736-1.658,1.788-.389-5.183-.337-6.012-.155-3.291-1.118-2.98-.9,3.654-.126,9.173-2.254,8.784-3.42,8.759-1.347-1.5-1.866-2.877-.881-1.27-1.14-1.27-.441.026-.389-.208c.052-.6,1.5-1.865,1.011-2.021s-1.451.233-2.566,1.5a21.827,21.827,0,0,1-3.628,3.265c-.7.415-2.281,1.866-2.851.682s.155-2.859.492-5.243-.259-3.162-.466-3.135-.492.648-.881,1.814a14.149,14.149,0,0,1-7.308,7.636c-3.058.639-5.442-.017-8.4-.38s-4.25.829-4.25.829a10.536,10.536,0,0,1,3.265.337,57.081,57.081,0,0,0,9.355,1.011c2.721-.13,6.064-3.369,6.064-3.369a2.185,2.185,0,0,0,1.425,2.7c2.047.933,5.312-2.194,5.934-2.358a4.622,4.622,0,0,0-.855,2.229c.052.518.674.466,1.192-.311s1.814-2.721,2.332-2.591c1.192.311,2.332,3.809,3.757,3.939s3.758-4.016,4.3-5.131c4.483-.026,4.923,3.628,7.463,4.379s5.934-3.524,6.245-3.576,1.5,4.12,4.354,3.809,3.6-3.213,3.757-2.583a3.046,3.046,0,0,0,2.721,2.5c2.047.208,3.965-2.98,4.043-2.8s-.13,2.436.233,2.643.622-.285.829-.7,1.218-3.136,2.151-3.809,1.71.181,2.617,2.159a5.735,5.735,0,0,0,2.2,2.842,7.725,7.725,0,0,0,6.582-.6c-.415.881-1.3,1.14-3.68,1.917a37.087,37.087,0,0,0-5.8,2.747c-.57.311-7.515,5.027-.415,8.914s10.754-10.65,10.936-11.376a18.425,18.425,0,0,1,6.763-3.343c.8-.078,3.524.311,4.406-.078C246.1,518.759,244.338,517.878,242.316,517.653ZM193,512.07c-.388-.149-.469-.879-.181-1.631s.837-1.24,1.226-1.09.47.879.181,1.631S193.385,512.219,193,512.07Zm12.756-2.977c.052-.674.6-10.261,2.125-10.443s.156,5.882-.181,7a9.415,9.415,0,0,1-1.658,3.783S205.7,509.767,205.753,509.093Zm23.173,23.037c-2.334.933-5.163-.035-5.163-3.006,0-3.256,10.331-6.91,10.331-6.91C233.817,525.876,231.26,531.2,228.926,532.13Zm6.169-13.718a1.245,1.245,0,0,1-2.142-.206,5.222,5.222,0,0,1-.38-5.494c.968-1.866,3.213-2.937,4.768-2.315C239.235,511.155,236.823,517.168,235.1,518.412Z" transform="translate(-154.937 -496.37)" fill="#fff" stroke="#000" stroke-miterlimit="10" stroke-width="0.25"/></g></svg>